<?xml version="1.0" encoding="UTF-8"?><svg xmlns="http://www.w3.org/2000/svg" xmlns:xlink="http://www.w3.org/1999/xlink" contentScriptType="text/ecmascript" width="582.75pt" zoomAndPan="magnify" contentStyleType="text/css" viewBox="0 0 582.75 582.75" height="582.75pt" preserveAspectRatio="xMidYMid meet" version="1.2"><defs><clipPath xml:id="clip1" id="clip1"><path d="M 238 45.132812 L 274 45.132812 L 274 109 L 238 109 Z M 238 45.132812 "/></clipPath><clipPath xml:id="clip2" id="clip2"><path d="M 272 45.132812 L 308 45.132812 L 308 109 L 272 109 Z M 272 45.132812 "/></clipPath></defs><g xml:id="surface1" id="surface1"><path style=" stroke:none;fill-rule:nonzero;fill:rgb(98.429871%,79.998779%,83.918762%);fill-opacity:1;" d="M 307.480469 80.78125 C 189.261719 80.78125 93.078125 176.933594 93.078125 295.070312 C 93.078125 413.238281 189.261719 509.355469 307.480469 509.355469 C 425.714844 509.355469 521.894531 413.238281 521.894531 295.070312 C 521.894531 176.933594 425.714844 80.78125 307.480469 80.78125 Z M 307.480469 515.058594 C 277.773438 515.058594 248.941406 509.273438 221.800781 497.792969 C 195.585938 486.71875 172.050781 470.859375 151.832031 450.617188 C 131.613281 430.417969 115.746094 406.917969 104.660156 380.691406 C 93.179688 353.601562 87.363281 324.765625 87.363281 295.070312 C 87.363281 265.371094 93.179688 236.582031 104.660156 209.445312 C 115.746094 183.253906 131.613281 159.71875 151.832031 139.519531 C 172.050781 119.320312 195.585938 103.453125 221.800781 92.390625 C 248.941406 80.90625 277.773438 75.078125 307.480469 75.078125 C 337.199219 75.078125 366.03125 80.90625 393.164062 92.390625 C 419.378906 103.453125 442.921875 119.320312 463.132812 139.519531 C 483.351562 159.71875 499.226562 183.253906 510.3125 209.445312 C 521.785156 236.582031 527.601562 265.371094 527.601562 295.070312 C 527.601562 324.765625 521.785156 353.601562 510.3125 380.691406 C 499.226562 406.917969 483.351562 430.417969 463.132812 450.617188 C 442.921875 470.859375 419.378906 486.71875 393.164062 497.792969 C 366.03125 509.273438 337.199219 515.058594 307.480469 515.058594 "/><path style=" stroke:none;fill-rule:nonzero;fill:rgb(96.469116%,50.979614%,60.778809%);fill-opacity:1;" d="M 108.171875 163.773438 C 101.363281 156.503906 95.445312 151.726562 83.402344 152.046875 C 81.902344 152.09375 80.304688 152.21875 78.597656 152.421875 C 68.195312 153.679688 56.386719 163.074219 55.375 180.433594 L 55.527344 186.191406 C 57.332031 202.730469 71.089844 222.820312 110.386719 247.402344 L 108.171875 163.773438 "/><path style=" stroke:none;fill-rule:nonzero;fill:rgb(98.039246%,72.549438%,78.42865%);fill-opacity:1;" d="M 137.101562 150.769531 C 135.382812 150.679688 133.777344 150.644531 132.277344 150.679688 C 120.230469 151.011719 114.585938 156.117188 108.171875 163.753906 L 110.386719 247.394531 C 148.320312 220.640625 160.992188 199.820312 161.921875 183.191406 L 161.769531 177.433594 C 159.839844 160.164062 147.542969 151.457031 137.101562 150.769531 "/><path style=" stroke:none;fill-rule:nonzero;fill:rgb(96.469116%,50.979614%,60.778809%);fill-opacity:1;" d="M 194.128906 125.519531 C 191.886719 121.242188 189.734375 118.25 184.050781 116.8125 C 183.335938 116.640625 182.578125 116.527344 181.746094 116.355469 C 176.714844 115.617188 169.960938 118.492188 167.238281 126.5 L 166.558594 129.207031 C 165.253906 137.171875 169.085938 148.386719 184.308594 164.96875 L 194.128906 125.519531 "/><path style=" stroke:none;fill-rule:nonzero;fill:rgb(98.039246%,72.549438%,78.42865%);fill-opacity:1;" d="M 209.363281 123.222656 C 208.578125 122.9375 207.824219 122.695312 207.121094 122.527344 C 201.4375 121.132812 198.132812 122.777344 194.128906 125.527344 L 184.308594 164.984375 C 205.546875 157.394531 214.195312 149.277344 216.789062 141.601562 L 217.464844 138.894531 C 218.804688 130.527344 214.179688 124.867188 209.363281 123.222656 "/><path style=" stroke:none;fill-rule:nonzero;fill:rgb(96.469116%,50.979614%,60.778809%);fill-opacity:1;" d="M 74.003906 291.960938 C 68.867188 288.605469 64.632812 286.648438 57.492188 288.648438 C 56.609375 288.878906 55.671875 289.167969 54.679688 289.566406 C 48.65625 291.84375 42.992188 299.167969 44.957031 309.6875 L 45.90625 313.132812 C 49.425781 322.730469 60.601562 332.652344 87.683594 341.535156 L 74.003906 291.960938 "/><path style=" stroke:none;fill-rule:nonzero;fill:rgb(98.039246%,72.549438%,78.42865%);fill-opacity:1;" d="M 89.34375 279.941406 C 88.308594 280.101562 87.34375 280.34375 86.460938 280.585938 C 79.320312 282.550781 76.703125 286.433594 74.003906 291.960938 L 87.683594 341.511719 C 106.363281 319.953125 110.859375 305.660156 108.957031 295.605469 L 108.007812 292.203125 C 104.300781 282.148438 95.6875 278.78125 89.34375 279.941406 "/><path style=" stroke:none;fill-rule:nonzero;fill:rgb(96.469116%,50.979614%,60.778809%);fill-opacity:1;" d="M 27.625 231.546875 C 22.898438 230.054688 19.183594 229.445312 14.0625 232.554688 C 13.417969 232.921875 12.757812 233.367188 12.070312 233.882812 C 7.886719 236.957031 5.074219 243.894531 8.890625 251.644531 L 10.371094 254.109375 C 15.195312 260.804688 26.050781 266.136719 49.042969 267.144531 L 27.625 231.546875 "/><path style=" stroke:none;fill-rule:nonzero;fill:rgb(98.039246%,72.549438%,78.42865%);fill-opacity:1;" d="M 36.945312 218.855469 C 36.175781 219.222656 35.46875 219.625 34.835938 219.992188 C 29.714844 223.105469 28.519531 226.660156 27.625 231.554688 L 49.042969 267.101562 C 58.886719 246.277344 59.261719 234.1875 55.597656 226.785156 L 54.125 224.355469 C 49.058594 217.367188 41.617188 216.597656 36.945312 218.855469 "/><path style=" stroke:none;fill-rule:nonzero;fill:rgb(96.469116%,50.979614%,60.778809%);fill-opacity:1;" d="M 219.378906 71.753906 C 217.992188 71.300781 216.902344 71.128906 215.394531 72.039062 C 215.207031 72.164062 215.019531 72.289062 214.8125 72.414062 C 213.589844 73.316406 212.757812 75.390625 213.882812 77.65625 L 214.3125 78.363281 C 215.734375 80.34375 218.921875 81.917969 225.667969 82.210938 L 219.378906 71.753906 "/><path style=" stroke:none;fill-rule:nonzero;fill:rgb(98.039246%,72.549438%,78.42865%);fill-opacity:1;" d="M 222.121094 68.03125 C 221.890625 68.15625 221.683594 68.238281 221.496094 68.363281 C 219.996094 69.273438 219.644531 70.34375 219.378906 71.753906 L 225.667969 82.210938 C 228.5625 76.09375 228.671875 72.539062 227.597656 70.34375 L 227.160156 69.636719 C 225.675781 67.574219 223.488281 67.371094 222.121094 68.03125 "/><path style=" stroke:none;fill-rule:nonzero;fill:rgb(96.469116%,50.979614%,60.778809%);fill-opacity:1;" d="M 142.230469 100.078125 C 139.691406 99.292969 137.699219 98.960938 134.945312 100.613281 C 134.597656 100.820312 134.242188 101.0625 133.875 101.355469 C 131.625 103 130.121094 106.738281 132.167969 110.902344 L 132.964844 112.214844 C 135.554688 115.792969 141.390625 118.679688 153.734375 119.214844 L 142.230469 100.078125 "/><path style=" stroke:none;fill-rule:nonzero;fill:rgb(98.039246%,72.549438%,78.42865%);fill-opacity:1;" d="M 147.242188 93.308594 C 146.828125 93.472656 146.445312 93.675781 146.105469 93.882812 C 143.355469 95.570312 142.710938 97.472656 142.230469 100.105469 L 153.734375 119.222656 C 159.027344 108.015625 159.230469 101.542969 157.265625 97.550781 L 156.46875 96.230469 C 153.753906 92.480469 149.75 92.070312 147.242188 93.308594 "/><g clip-rule="nonzero" clip-path="url(#clip1)"><path style=" stroke:none;fill-rule:nonzero;fill:rgb(96.469116%,50.979614%,60.778809%);fill-opacity:1;" d="M 272.816406 53.691406 C 268.457031 48.832031 264.660156 45.679688 256.804688 45.761719 C 255.824219 45.761719 254.777344 45.851562 253.660156 45.976562 C 246.871094 46.679688 239.0625 52.65625 238.210938 63.933594 L 238.257812 67.710938 C 239.25 78.539062 247.996094 91.773438 273.335938 108.195312 L 272.816406 53.691406 "/></g><g clip-rule="nonzero" clip-path="url(#clip2)"><path style=" stroke:none;fill-rule:nonzero;fill:rgb(98.039246%,72.549438%,78.42865%);fill-opacity:1;" d="M 291.820312 45.511719 C 290.695312 45.421875 289.648438 45.386719 288.675781 45.386719 C 280.820312 45.464844 277.078125 48.742188 272.816406 53.636719 L 273.335938 108.195312 C 298.359375 91.183594 306.847656 77.746094 307.644531 66.914062 L 307.605469 63.136719 C 306.535156 51.851562 298.617188 46.046875 291.820312 45.511719 "/></g><path style=" stroke:none;fill-rule:nonzero;fill:rgb(96.469116%,50.979614%,60.778809%);fill-opacity:1;" d="M 252.660156 120.542969 C 252.738281 118.082031 252.542969 116.1875 250.355469 114.097656 C 250.078125 113.847656 249.773438 113.5625 249.433594 113.3125 C 247.371094 111.714844 243.617188 111.257812 240.355469 114.132812 L 239.363281 115.203125 C 236.746094 118.445312 235.621094 124.445312 238.222656 135.742188 L 252.660156 120.542969 "/><path style=" stroke:none;fill-rule:nonzero;fill:rgb(98.039246%,72.549438%,78.42865%);fill-opacity:1;" d="M 260.074219 123.382812 C 259.796875 123.0625 259.511719 122.769531 259.246094 122.527344 C 257.054688 120.4375 255.152344 120.347656 252.660156 120.554688 L 238.210938 135.777344 C 249.675781 137.742188 255.609375 136.3125 258.71875 133.519531 L 259.71875 132.492188 C 262.441406 129.089844 261.808594 125.359375 260.074219 123.382812 "/><path style=" stroke:none;fill-rule:nonzero;fill:rgb(96.469116%,50.979614%,60.778809%);fill-opacity:1;" d="M 38.453125 367.09375 C 35.960938 367.171875 34.085938 367.484375 32.15625 369.816406 C 31.914062 370.09375 31.671875 370.40625 31.429688 370.761719 C 29.949219 372.941406 29.761719 376.726562 32.871094 379.773438 L 33.976562 380.683594 C 37.390625 383.09375 43.4375 383.84375 54.5625 380.488281 L 38.453125 367.09375 "/><path style=" stroke:none;fill-rule:nonzero;fill:rgb(98.039246%,72.549438%,78.42865%);fill-opacity:1;" d="M 40.792969 359.503906 C 40.492188 359.816406 40.214844 360.09375 39.972656 360.367188 C 38.050781 362.707031 38.078125 364.601562 38.453125 367.101562 L 54.5625 380.476562 C 55.796875 368.914062 53.972656 363.101562 50.996094 360.171875 L 49.890625 359.261719 C 46.316406 356.769531 42.644531 357.636719 40.792969 359.503906 "/><path style=" stroke:none;fill-rule:nonzero;fill:rgb(96.469116%,50.979614%,60.778809%);fill-opacity:1;" d="M 108.3125 426.597656 C 106.265625 425.972656 104.648438 425.695312 102.433594 427.035156 C 102.15625 427.1875 101.871094 427.382812 101.578125 427.617188 C 99.761719 428.945312 98.546875 431.964844 100.199219 435.332031 L 100.835938 436.394531 C 102.925781 439.285156 107.625 441.597656 117.585938 442.027344 L 108.3125 426.597656 "/><path style=" stroke:none;fill-rule:nonzero;fill:rgb(98.039246%,72.549438%,78.42865%);fill-opacity:1;" d="M 112.351562 421.089844 C 112.011719 421.25 111.707031 421.402344 111.429688 421.597656 C 109.214844 422.9375 108.695312 424.464844 108.3125 426.578125 L 117.585938 441.972656 C 121.847656 432.964844 122.019531 427.75 120.429688 424.535156 L 119.785156 423.480469 C 117.597656 420.425781 114.371094 420.113281 112.351562 421.089844 "/><path style=" stroke:none;fill-rule:nonzero;fill:rgb(96.469116%,50.979614%,60.778809%);fill-opacity:1;" d="M 313.234375 108.675781 C 313.558594 106.535156 313.585938 104.890625 311.90625 102.875 C 311.691406 102.625 311.457031 102.382812 311.191406 102.097656 C 309.574219 100.488281 306.382812 99.75 303.273438 101.925781 L 302.308594 102.710938 C 299.726562 105.257812 298.136719 110.285156 299.226562 120.320312 L 313.234375 108.675781 "/><path style=" stroke:none;fill-rule:nonzero;fill:rgb(98.039246%,72.549438%,78.42865%);fill-opacity:1;" d="M 319.347656 111.890625 C 319.132812 111.5625 318.925781 111.277344 318.710938 111.035156 C 317.03125 109.015625 315.40625 108.765625 313.234375 108.6875 L 299.226562 120.320312 C 308.902344 123.195312 314.175781 122.582031 317.140625 120.480469 L 318.105469 119.707031 C 320.804688 117.035156 320.632812 113.742188 319.347656 111.890625 "/><path style=" stroke:none;fill-rule:nonzero;fill:rgb(96.469116%,50.979614%,60.778809%);fill-opacity:1;" d="M 114.496094 375.441406 C 114.523438 372.394531 114.21875 370.066406 111.457031 367.609375 C 111.117188 367.296875 110.734375 366.976562 110.304688 366.664062 C 107.722656 364.726562 103.105469 364.332031 99.199219 368.011719 L 98.011719 369.316406 C 94.910156 373.386719 93.722656 380.773438 97.277344 394.578125 L 114.503906 375.441406 C 114.503906 375.441406 114.503906 375.441406 114.496094 375.441406 "/><path style=" stroke:none;fill-rule:nonzero;fill:rgb(98.039246%,72.549438%,78.42865%);fill-opacity:1;" d="M 123.699219 378.691406 C 123.339844 378.296875 122.992188 377.941406 122.644531 377.628906 C 119.890625 375.136719 117.550781 375.101562 114.503906 375.460938 L 97.277344 394.558594 C 111.40625 396.605469 118.640625 394.675781 122.367188 391.164062 L 123.554688 389.816406 C 126.789062 385.558594 125.886719 381.023438 123.699219 378.691406 "/><path style=" stroke:none;fill-rule:nonzero;fill:rgb(96.469116%,50.979614%,60.778809%);fill-opacity:1;" d="M 525.15625 416.460938 C 533.464844 420.265625 539.332031 423.988281 542.550781 434.535156 C 542.953125 435.867188 543.308594 437.277344 543.621094 438.847656 C 545.5625 448.214844 540.84375 461.234375 526.046875 467.15625 L 520.992188 468.726562 C 506.078125 471.984375 484.617188 465.859375 451.8125 438.882812 L 525.15625 416.460938 "/><path style=" stroke:none;fill-rule:nonzero;fill:rgb(98.039246%,72.549438%,78.42865%);fill-opacity:1;" d="M 528.011719 387.578125 C 528.613281 389.039062 529.105469 390.414062 529.503906 391.71875 C 532.722656 402.308594 529.933594 408.667969 525.15625 416.480469 L 451.8125 438.910156 C 464.007812 398.203125 478.417969 381.101562 492.597656 375.449219 L 497.652344 373.914062 C 513.246094 370.558594 524.386719 378.691406 528.011719 387.578125 "/><path style=" stroke:none;fill-rule:nonzero;fill:rgb(96.469116%,50.979614%,60.778809%);fill-opacity:1;" d="M 538.628906 321.445312 C 543.015625 322.160156 546.25 323.160156 549.125 327.652344 C 549.484375 328.25 549.839844 328.847656 550.1875 329.527344 C 552.316406 333.707031 551.796875 340.386719 545.632812 345.082031 L 543.46875 346.472656 C 536.902344 349.9375 526.058594 349.859375 507.1875 341.464844 L 538.628906 321.445312 "/><path style=" stroke:none;fill-rule:nonzero;fill:rgb(98.039246%,72.549438%,78.42865%);fill-opacity:1;" d="M 536.214844 307.542969 C 536.679688 308.140625 537.101562 308.738281 537.457031 309.300781 C 540.324219 313.8125 539.859375 317.160156 538.628906 321.429688 L 507.1875 341.464844 C 507.605469 320.792969 512.144531 310.9375 518.050781 306.460938 L 520.222656 305.070312 C 527.085938 301.472656 533.367188 303.828125 536.214844 307.542969 "/><path style=" stroke:none;fill-rule:nonzero;fill:rgb(96.469116%,50.979614%,60.778809%);fill-opacity:1;" d="M 434.253906 484.90625 C 438.660156 488.398438 441.609375 491.503906 441.964844 498.292969 C 442.007812 499.105469 442.019531 500.03125 441.972656 501.003906 C 441.742188 506.898438 437.007812 513.960938 427.292969 515.320312 L 424.050781 515.472656 C 414.679688 515.203125 402.769531 508.417969 387.167969 487.46875 L 434.261719 484.90625 C 434.253906 484.90625 434.253906 484.90625 434.253906 484.90625 "/><path style=" stroke:none;fill-rule:nonzero;fill:rgb(98.039246%,72.549438%,78.42865%);fill-opacity:1;" d="M 440.242188 468.101562 C 440.375 469.074219 440.464844 469.96875 440.507812 470.824219 C 440.867188 477.566406 438.265625 480.996094 434.261719 484.933594 L 387.167969 487.503906 C 400.472656 464.976562 411.597656 456.914062 420.886719 455.664062 L 424.140625 455.476562 C 433.933594 455.777344 439.382812 462.253906 440.242188 468.101562 "/><path style=" stroke:none;fill-rule:nonzero;fill:rgb(96.469116%,50.979614%,60.778809%);fill-opacity:1;" d="M 489.691406 506.195312 C 492.355469 509.828125 493.980469 512.890625 492.785156 518.230469 C 492.632812 518.925781 492.4375 519.625 492.203125 520.363281 C 490.738281 524.890625 485.519531 529.339844 477.675781 528.292969 L 475.113281 527.714844 C 467.875 525.507812 460.09375 517.613281 452.515625 497.953125 L 489.691406 506.195312 "/><path style=" stroke:none;fill-rule:nonzero;fill:rgb(98.039246%,72.549438%,78.42865%);fill-opacity:1;" d="M 498.011719 494.371094 C 497.914062 495.148438 497.777344 495.890625 497.636719 496.550781 C 496.4375 501.90625 493.667969 503.960938 489.703125 506.175781 L 452.515625 497.941406 C 467.757812 483.308594 478.160156 479.46875 485.671875 480.476562 L 488.238281 481.058594 C 495.785156 483.421875 498.609375 489.675781 498.011719 494.371094 "/><path style=" stroke:none;fill-rule:nonzero;fill:rgb(96.469116%,50.979614%,60.778809%);fill-opacity:1;" d="M 572.75 293.03125 C 573.535156 294.113281 574.007812 295.03125 573.660156 296.585938 C 573.617188 296.792969 573.554688 296.988281 573.492188 297.230469 C 573.050781 298.550781 571.523438 299.863281 569.21875 299.550781 L 568.46875 299.390625 C 566.34375 298.710938 564.054688 296.390625 561.832031 290.628906 L 572.75 293.03125 "/><path style=" stroke:none;fill-rule:nonzero;fill:rgb(98.039246%,72.549438%,78.42865%);fill-opacity:1;" d="M 575.1875 289.585938 C 575.160156 289.828125 575.125 290.03125 575.082031 290.230469 C 574.730469 291.828125 573.917969 292.433594 572.75 293.066406 L 561.832031 290.667969 C 566.308594 286.34375 569.363281 285.226562 571.570312 285.550781 L 572.320312 285.710938 C 574.535156 286.390625 575.367188 288.230469 575.1875 289.585938 "/><path style=" stroke:none;fill-rule:nonzero;fill:rgb(96.469116%,50.979614%,60.778809%);fill-opacity:1;" d="M 570.585938 368.351562 C 572.015625 370.324219 572.890625 371.949219 572.25 374.835938 C 572.167969 375.191406 572.0625 375.585938 571.925781 375.976562 C 571.148438 378.386719 568.34375 380.800781 564.128906 380.246094 L 562.75 379.933594 C 558.863281 378.710938 554.675781 374.476562 550.609375 363.921875 L 570.585938 368.351562 "/><path style=" stroke:none;fill-rule:nonzero;fill:rgb(98.039246%,72.549438%,78.42865%);fill-opacity:1;" d="M 575.054688 361.976562 C 575 362.40625 574.9375 362.804688 574.859375 363.164062 C 574.214844 366.011719 572.730469 367.121094 570.585938 368.308594 L 550.609375 363.914062 C 558.800781 356.027344 564.394531 353.976562 568.425781 354.527344 L 569.800781 354.839844 C 573.867188 356.109375 575.375 359.441406 575.054688 361.976562 "/><path style=" stroke:none;fill-rule:nonzero;fill:rgb(96.469116%,50.979614%,60.778809%);fill-opacity:1;" d="M 568.800781 231.242188 C 574.269531 233.617188 578.128906 236 580.34375 242.859375 C 580.621094 243.707031 580.863281 244.636719 581.09375 245.644531 C 582.453125 251.734375 579.53125 260.242188 569.945312 264.28125 L 566.664062 265.332031 C 556.980469 267.628906 542.925781 263.878906 521.242188 246.6875 L 568.800781 231.242188 "/><path style=" stroke:none;fill-rule:nonzero;fill:rgb(98.039246%,72.549438%,78.42865%);fill-opacity:1;" d="M 570.34375 212.375 C 570.746094 213.300781 571.097656 214.195312 571.363281 215.042969 C 573.578125 221.902344 571.835938 226.117188 568.808594 231.214844 L 521.242188 246.664062 C 528.746094 219.992188 537.949219 208.6875 547.125 204.835938 L 550.414062 203.785156 C 560.535156 201.425781 567.886719 206.613281 570.34375 212.375 "/><path style=" stroke:none;fill-rule:nonzero;fill:rgb(96.469116%,50.979614%,60.778809%);fill-opacity:1;" d="M 518.972656 262.621094 C 521.117188 261.816406 522.824219 261.457031 525.261719 262.746094 C 525.566406 262.90625 525.886719 263.101562 526.21875 263.308594 C 528.226562 264.628906 529.691406 267.761719 528.128906 271.460938 L 527.503906 272.621094 C 525.449219 275.835938 520.570312 278.566406 509.976562 279.613281 L 518.972656 262.621094 "/><path style=" stroke:none;fill-rule:nonzero;fill:rgb(98.039246%,72.549438%,78.42865%);fill-opacity:1;" d="M 514.351562 257.011719 C 514.71875 257.171875 515.050781 257.332031 515.363281 257.492188 C 517.792969 258.78125 518.4375 260.429688 518.972656 262.644531 L 509.976562 279.601562 C 504.910156 270.234375 504.425781 264.65625 505.9375 261.15625 L 506.5625 259.992188 C 508.722656 256.609375 512.136719 256.09375 514.351562 257.011719 "/><path style=" stroke:none;fill-rule:nonzero;fill:rgb(96.469116%,50.979614%,60.778809%);fill-opacity:1;" d="M 386.167969 530.929688 C 386.828125 533.125 387.089844 534.867188 385.632812 537.214844 C 385.453125 537.480469 385.25 537.792969 385.007812 538.105469 C 383.558594 540.035156 380.335938 541.304688 376.769531 539.492188 L 375.644531 538.792969 C 372.5625 536.519531 370.15625 531.507812 369.820312 520.863281 L 386.167969 530.929688 "/><path style=" stroke:none;fill-rule:nonzero;fill:rgb(98.039246%,72.549438%,78.42865%);fill-opacity:1;" d="M 392.082031 526.695312 C 391.90625 527.042969 391.726562 527.390625 391.546875 527.667969 C 390.089844 530.015625 388.429688 530.5625 386.167969 530.945312 L 369.820312 520.875 C 379.503906 516.433594 385.105469 516.320312 388.507812 518.050781 L 389.636719 518.75 C 392.84375 521.105469 393.15625 524.578125 392.082031 526.695312 "/><path style=" stroke:none;fill-rule:nonzero;fill:rgb(96.469116%,50.979614%,60.778809%);fill-opacity:1;" d="M 326.484375 517.75 C 327.636719 519.363281 328.335938 520.675781 327.824219 523 C 327.753906 523.265625 327.675781 523.578125 327.566406 523.882812 C 326.941406 525.855469 324.679688 527.785156 321.277344 527.355469 L 320.167969 527.089844 C 317.03125 526.125 313.664062 522.722656 310.386719 514.195312 L 326.484375 517.75 "/><path style=" stroke:none;fill-rule:nonzero;fill:rgb(98.039246%,72.549438%,78.42865%);fill-opacity:1;" d="M 330.085938 512.640625 C 330.042969 512.988281 329.988281 513.292969 329.925781 513.570312 C 329.40625 515.882812 328.210938 516.8125 326.484375 517.738281 L 310.386719 514.183594 C 316.980469 507.84375 321.492188 506.183594 324.742188 506.648438 L 325.851562 506.882812 C 329.128906 507.882812 330.34375 510.585938 330.085938 512.640625 "/><path style=" stroke:none;fill-rule:nonzero;fill:rgb(96.469116%,50.979614%,60.778809%);fill-opacity:1;" d="M 520.285156 194.203125 C 522.054688 193.273438 523.484375 192.78125 525.726562 193.675781 C 526.003906 193.757812 526.289062 193.882812 526.601562 194.042969 C 528.46875 194.980469 530.058594 197.535156 529.085938 200.863281 L 528.664062 201.953125 C 527.21875 204.917969 523.289062 207.757812 514.253906 209.75 L 520.285156 194.203125 "/><path style=" stroke:none;fill-rule:nonzero;fill:rgb(98.039246%,72.549438%,78.42865%);fill-opacity:1;" d="M 515.71875 189.816406 C 516.058594 189.898438 516.355469 190.015625 516.640625 190.140625 C 518.875 190.988281 519.597656 192.328125 520.285156 194.203125 L 514.253906 209.75 C 508.929688 202.195312 507.945312 197.410156 508.882812 194.238281 L 509.304688 193.183594 C 510.824219 190.058594 513.71875 189.246094 515.71875 189.816406 "/><path style=" stroke:none;fill-rule:nonzero;fill:rgb(96.469116%,50.979614%,60.778809%);fill-opacity:1;" d="M 360.089844 491.476562 C 362.742188 490.585938 364.84375 490.15625 367.800781 491.828125 C 368.175781 492.058594 368.550781 492.289062 368.953125 492.566406 C 371.371094 494.226562 373.070312 498.148438 371.035156 502.605469 L 370.230469 503.996094 C 367.59375 507.90625 361.519531 511.085938 348.484375 512.015625 L 360.089844 491.476562 "/><path style=" stroke:none;fill-rule:nonzero;fill:rgb(98.039246%,72.549438%,78.42865%);fill-opacity:1;" d="M 354.59375 484.433594 C 355.039062 484.628906 355.441406 484.863281 355.808594 485.058594 C 358.765625 486.71875 359.5 488.738281 360.089844 491.496094 L 348.484375 512.015625 C 342.578125 500.34375 342.164062 493.515625 344.132812 489.246094 L 344.9375 487.808594 C 347.695312 483.773438 351.90625 483.226562 354.59375 484.433594 "/></g></svg>